<svg class="icon" viewBox="0 0 1024 1024" xmlns="http://www.w3.org/2000/svg" width="200" height="200"><defs><style/></defs><path d="M972.8 549.914v294.758a128.077 128.077 0 0 1-128 128.128H179.2a128 128 0 0 1-128-128V179.2c0-70.733 57.19-128 127.872-128h202.317a25.6 25.6 0 0 0 0-51.2H179.072A179.072 179.072 0 0 0 0 179.2v665.6A179.2 179.2 0 0 0 179.2 1024h665.6c98.944 0 179.2-80.282 179.2-179.328V549.914a25.6 25.6 0 0 0-51.2 0z"/><path d="M960 128c-353.46 0-640 286.54-640 640a25.6 25.6 0 0 0 51.2 0c0-325.197 263.603-588.8 588.8-588.8a25.6 25.6 0 0 0 0-51.2z"/><path d="M720.102 62.157l256 102.4a25.6 25.6 0 0 0 18.996-47.514l-256-102.4a25.6 25.6 0 0 0-18.996 47.514z"/><path d="M808.806 348.467l194.637-189.312a25.6 25.6 0 1 0-35.686-36.71L773.12 311.757a25.6 25.6 0 1 0 35.686 36.71z"/></svg>