<svg class="icon" viewBox="0 0 1024 1024" xmlns="http://www.w3.org/2000/svg" width="200" height="200"><defs><style/></defs><path d="M665.6 128a21.333 21.333 0 1 1 0-42.667h123.648a149.483 149.483 0 0 1 149.419 149.483V368.32a21.333 21.333 0 1 1-42.667 0V234.816A106.816 106.816 0 0 0 789.248 128h-123.67zM896 675.968a21.333 21.333 0 1 1 42.667 0v113.259a149.397 149.397 0 0 1-149.334 149.44H234.667c-82.39 0-149.334-66.987-149.334-149.206V666.71a21.333 21.333 0 0 1 42.667 0v122.752A106.773 106.773 0 0 0 234.667 896h554.666C848.213 896 896 848.192 896 789.227v-113.28zM128 363.051a21.333 21.333 0 1 1-42.667 0V234.837c0-82.538 66.838-149.504 149.291-149.504h128.725a21.333 21.333 0 0 1 0 42.667H234.624A106.73 106.73 0 0 0 128 234.859V363.05zm-21.333 170.282a21.333 21.333 0 0 1 0-42.666h810.666a21.333 21.333 0 0 1 0 42.666H106.667z"/></svg>